:FULLY-SPECIFIED
:FORCE-ALL-JOINTS-BE-3DOF
:DEGREES
1
root 6.24314 16.836 -28.1378 9.0217 -2.52979 -3.05774
lfemur -20.3712 2.30257 -19.9954
ltibia 35.927 0 0
lfoot -38.654 3.93715 0
ltoes 38.9541 0 0
rfemur -19.4747 0.22019 19.5256
rtibia 36.0342 0 0
rfoot -30.3779 -10.4967 0
rtoes 21.4483 0 0
lowerback -2.05144 3.66971 -5.03766
upperback -2.66728 5.00355 3.49279
thorax -2.36397 2.67023 6.42441
lowerneck -9.84699 -2.36864 1.94815
upperneck -1.37933 -3.32542 -1.65382
head 1.16433 -1.69823 -0.975663
lclavicle -1.65488e-14 -3.69739e-14 0
lhumerus -41.7253 -10.8128 99.8312
lradius 34.5094 0 0
lwrist 2.17521 0 0
lhand -10.5949 9.65639 0
lfingers 7.12502 0 0
lthumb 15.4107 39.062 0
rclavicle -1.65488e-14 -3.69739e-14 0
rhumerus -43.273 -4.86223 -84.2703
rradius 40.4763 0 0
rwrist 9.89469 0 0
rhand -23.7965 -22.476 0
rfingers 7.12502 0 0
rthumb 2.67393 -52.439 0
2
root 6.23986 16.8415 -28.1214 9.10586 -2.72635 -2.90646
lfemur -20.2393 2.30106 -20.181
ltibia 35.6943 0 0
lfoot -38.627 4.08266 0
ltoes 38.8958 0 0
rfemur -19.3195 0.281789 19.3436
rtibia 35.6674 0 0
rfoot -30.4349 -10.4878 0
rtoes 21.6752 0 0
lowerback -2.35909 3.67412 -4.99904
upperback -2.65123 5.01751 3.35264
thorax -2.15973 2.6673 6.27829
lowerneck -9.84028 -2.34024 1.97093
upperneck -1.3918 -3.29159 -1.57276
head 1.16053 -1.67968 -0.952427
lclavicle -4.74019e-14 -3.90943e-14 0
lhumerus -41.8171 -10.7047 99.6114
lradius 34.5812 0 0
lwrist 2.28498 0 0
lhand -10.9411 7.50361 0
lfingers 7.12502 0 0
lthumb 15.0771 36.9339 0
rclavicle -4.74019e-14 -3.90943e-14 0
rhumerus -43.4846 -4.72073 -84.518
rradius 40.7524 0 0
rwrist 9.88171 0 0
rhand -23.8607 -22.4454 0
rfingers 7.12502 0 0
rthumb 2.61193 -52.4092 0
3
root 6.23657 16.847 -28.105 9.19002 -2.9229 -2.75517
lfemur -20.1075 2.29956 -20.3666
ltibia 35.4616 0 0
lfoot -38.5999 4.22816 0
ltoes 38.8374 0 0
rfemur -19.1644 0.343387 19.1616
rtibia 35.3006 0 0
rfoot -30.4919 -10.479 0
rtoes 21.9021 0 0
lowerback -2.66673 3.67853 -4.96042
upperback -2.63518 5.03148 3.21249
thorax -1.95548 2.66436 6.13218
lowerneck -9.83357 -2.31184 1.99372
upperneck -1.40428 -3.25775 -1.49171
head 1.15674 -1.66113 -0.929192
lclavicle -7.82549e-14 -4.12147e-14 0
lhumerus -41.909 -10.5967 99.3916
lradius 34.6529 0 0
lwrist 2.39475 0 0
lhand -11.2874 5.35084 0
lfingers 7.12502 0 0
lthumb 14.7436 34.8059 0
rclavicle -7.82549e-14 -4.12147e-14 0
rhumerus -43.6963 -4.57923 -84.7657
rradius 41.0286 0 0
rwrist 9.86873 0 0
rhand -23.9249 -22.4148 0
rfingers 7.12502 0 0
rthumb 2.54992 -52.3793 0
4
root 6.23329 16.8525 -28.0886 9.27418 -3.11946 -2.60389
lfemur -19.9756 2.29805 -20.5522
ltibia 35.2289 0 0
lfoot -38.5729 4.37367 0
ltoes 38.7791 0 0
rfemur -19.0092 0.404986 18.9796
rtibia 34.9338 0 0
rfoot -30.5489 -10.4701 0
rtoes 22.129 0 0
lowerback -2.97438 3.68294 -4.9218
upperback -2.61913 5.04544 3.07234
thorax -1.75124 2.66143 5.98606
lowerneck -9.82686 -2.28344 2.0165
upperneck -1.41675 -3.22392 -1.41065
head 1.15294 -1.64258 -0.905956
lclavicle -1.09108e-13 -4.33351e-14 0
lhumerus -42.0008 -10.4886 99.1718
lradius 34.7247 0 0
lwrist 2.50452 0 0
lhand -11.6336 3.19806 0
lfingers 7.12502 0 0
lthumb 14.41 32.6778 0
rclavicle -1.09108e-13 -4.33351e-14 0
rhumerus -43.9079 -4.43773 -85.0134
rradius 41.3047 0 0
rwrist 9.85575 0 0
rhand -23.9891 -22.3842 0
rfingers 7.12502 0 0
rthumb 2.48792 -52.3495 0
5
root 6.24471 16.8498 -28.075 9.1264 -3.01583 -2.54485
lfemur -19.8717 2.38473 -20.5574
ltibia 35.2369 0 0
lfoot -38.4181 4.24021 0
ltoes 38.7243 0 0
rfemur -19.6337 0.212467 19.2769
rtibia 35.3828 0 0
rfoot -30.1708 -10.1904 0
rtoes 21.691 0 0
lowerback -2.82253 3.62769 -4.95272
upperback -2.55697 4.95951 3.03348
thorax -1.75894 2.61739 5.97145
lowerneck -9.84673 -2.27144 1.99648
upperneck -1.40386 -3.207 -1.37321
head 1.16142 -1.63299 -0.890048
lclavicle -1.08267e-13 -4.28901e-14 0
lhumerus -41.9918 -10.5861 99.1039
lradius 34.8613 0 0
lwrist 2.62171 0 0
lhand -11.4698 3.22708 0
lfingers 7.12502 0 0
lthumb 14.5668 32.6842 0
rclavicle -1.08267e-13 -4.28901e-14 0
rhumerus -43.918 -4.6123 -84.812
rradius 41.6168 0 0
rwrist 9.48296 0 0
rhand -24.0286 -22.4179 0
rfingers 7.12502 0 0
rthumb 2.44972 -52.3832 0
6
root 6.25613 16.8472 -28.0615 8.97863 -2.9122 -2.48581
lfemur -19.7678 2.4714 -20.5626
ltibia 35.2449 0 0
lfoot -38.2633 4.10676 0
ltoes 38.6695 0 0
rfemur -20.2581 0.0199474 19.5742
rtibia 35.8317 0 0
rfoot -29.7928 -9.9107 0
rtoes 21.2529 0 0
lowerback -2.67067 3.57245 -4.98365
upperback -2.49481 4.87358 2.99461
thorax -1.76663 2.57335 5.95684
lowerneck -9.86661 -2.25945 1.97647
upperneck -1.39098 -3.19008 -1.33576
head 1.16991 -1.6234 -0.874139
lclavicle -1.07427e-13 -4.2445e-14 0
lhumerus -41.9829 -10.6837 99.0359
lradius 34.9979 0 0
lwrist 2.73889 0 0
lhand -11.306 3.25609 0
lfingers 7.12502 0 0
lthumb 14.7237 32.6907 0
rclavicle -1.07427e-13 -4.2445e-14 0
rhumerus -43.928 -4.78687 -84.6106
rradius 41.929 0 0
rwrist 9.11016 0 0
rhand -24.0682 -22.4516 0
rfingers 7.12502 0 0
rthumb 2.41153 -52.4169 0
7
root 6.26755 16.8445 -28.0479 8.83085 -2.80857 -2.42677
lfemur -19.6639 2.55808 -20.5678
ltibia 35.2529 0 0
lfoot -38.1085 3.9733 0
ltoes 38.6148 0 0
rfemur -20.8826 -0.172572 19.8715
rtibia 36.2807 0 0
rfoot -29.4147 -9.631 0
rtoes 20.8149 0 0
lowerback -2.51882 3.5172 -5.01457
upperback -2.43264 4.78764 2.95575
thorax -1.77433 2.52932 5.94222
lowerneck -9.88648 -2.24745 1.95645
upperneck -1.37809 -3.17317 -1.29832
head 1.17839 -1.61381 -0.858231
lclavicle -1.06586e-13 -4.2e-14 0
lhumerus -41.9739 -10.7812 98.968
lradius 35.1345 0 0
lwrist 2.85608 0 0
lhand -11.1422 3.28511 0
lfingers 7.12502 0 0
lthumb 14.8805 32.6971 0
rclavicle -1.06586e-13 -4.2e-14 0
rhumerus -43.9381 -4.96145 -84.4092
rradius 42.2411 0 0
rwrist 8.73737 0 0
rhand -24.1077 -22.4854 0
rfingers 7.12502 0 0
rthumb 2.37333 -52.4506 0
8
root 6.27897 16.8418 -28.0343 8.68307 -2.70494 -2.36773
lfemur -19.56 2.64475 -20.573
ltibia 35.2609 0 0
lfoot -37.9537 3.83984 0
ltoes 38.56 0 0
rfemur -21.507 -0.365091 20.1688
rtibia 36.7296 0 0
rfoot -29.0366 -9.3513 0
rtoes 20.3768 0 0
lowerback -2.36697 3.46196 -5.04549
upperback -2.37048 4.70171 2.91688
thorax -1.78202 2.48528 5.92761
lowerneck -9.90635 -2.23546 1.93643
upperneck -1.36521 -3.15625 -1.26087
head 1.18688 -1.60421 -0.842323
lclavicle -1.05746e-13 -4.15549e-14 0
lhumerus -41.9649 -10.8788 98.9001
lradius 35.2711 0 0
lwrist 2.97327 0 0
lhand -10.9784 3.31412 0
lfingers 7.12502 0 0
lthumb 15.0374 32.7036 0
rclavicle -1.05746e-13 -4.15549e-14 0
rhumerus -43.9481 -5.13602 -84.2078
rradius 42.5532 0 0
rwrist 8.36457 0 0
rhand -24.1473 -22.5191 0
rfingers 7.12502 0 0
rthumb 2.33514 -52.4843 0
9
root 6.2904 16.8392 -28.0207 8.5353 -2.60131 -2.30869
lfemur -19.4561 2.73143 -20.5782
ltibia 35.2689 0 0
lfoot -37.7989 3.70639 0
ltoes 38.5052 0 0
rfemur -22.1315 -0.55761 20.4661
rtibia 37.1786 0 0
rfoot -28.6586 -9.0716 0
rtoes 19.9388 0 0
lowerback -2.21511 3.40671 -5.07642
upperback -2.30832 4.61578 2.87802
thorax -1.78972 2.44124 5.913
lowerneck -9.92622 -2.22346 1.91642
upperneck -1.35232 -3.13933 -1.22343
head 1.19536 -1.59462 -0.826414
lclavicle -1.04905e-13 -4.11099e-14 0
lhumerus -41.956 -10.9763 98.8321
lradius 35.4077 0 0
lwrist 3.09046 0 0
lhand -10.8146 3.34314 0
lfingers 7.12502 0 0
lthumb 15.1942 32.71 0
rclavicle -1.04905e-13 -4.11099e-14 0
rhumerus -43.9582 -5.31059 -84.0064
rradius 42.8654 0 0
rwrist 7.99178 0 0
rhand -24.1868 -22.5528 0
rfingers 7.12502 0 0
rthumb 2.29694 -52.518 0
10
root 6.30182 16.8365 -28.0072 8.38752 -2.49768 -2.24964
lfemur -19.3522 2.8181 -20.5834
ltibia 35.2769 0 0
lfoot -37.6441 3.57293 0
ltoes 38.4504 0 0
rfemur -22.756 -0.75013 20.7634
rtibia 37.6275 0 0
rfoot -28.2805 -8.7919 0
rtoes 19.5007 0 0
lowerback -2.06326 3.35147 -5.10734
upperback -2.24616 4.52985 2.83915
thorax -1.79741 2.3972 5.89839
lowerneck -9.9461 -2.21147 1.8964
upperneck -1.33944 -3.12241 -1.18599
head 1.20385 -1.58503 -0.810506
lclavicle -1.04065e-13 -4.06649e-14 0
lhumerus -41.947 -11.0739 98.7642
lradius 35.5443 0 0
lwrist 3.20764 0 0
lhand -10.6508 3.37215 0
lfingers 7.12502 0 0
lthumb 15.351 32.7165 0
rclavicle -1.04065e-13 -4.06649e-14 0
rhumerus -43.9683 -5.48516 -83.805
rradius 43.1775 0 0
rwrist 7.61898 0 0
rhand -24.2264 -22.5865 0
rfingers 7.12502 0 0
rthumb 2.25875 -52.5517 0
11
root 6.31324 16.8338 -27.9936 8.23974 -2.39405 -2.1906
lfemur -19.2484 2.90478 -20.5886
ltibia 35.2849 0 0
lfoot -37.4893 3.43947 0
ltoes 38.3956 0 0
rfemur -23.3804 -0.942649 21.0607
rtibia 38.0765 0 0
rfoot -27.9024 -8.5122 0
rtoes 19.0627 0 0
lowerback -1.9114 3.29622 -5.13827
upperback -2.184 4.44392 2.80029
thorax -1.80511 2.35316 5.88378
lowerneck -9.96597 -2.19947 1.87638
upperneck -1.32655 -3.10549 -1.14854
head 1.21233 -1.57544 -0.794598
lclavicle -1.03224e-13 -4.02198e-14 0
lhumerus -41.938 -11.1714 98.6963
lradius 35.6809 0 0
lwrist 3.32483 0 0
lhand -10.4869 3.40117 0
lfingers 7.12502 0 0
lthumb 15.5079 32.7229 0
rclavicle -1.03224e-13 -4.02198e-14 0
rhumerus -43.9783 -5.65974 -83.6036
rradius 43.4896 0 0
rwrist 7.24619 0 0
rhand -24.2659 -22.6202 0
rfingers 7.12502 0 0
rthumb 2.22055 -52.5854 0
12
root 6.32466 16.8311 -27.98 8.09197 -2.29042 -2.13156
lfemur -19.1445 2.99146 -20.5938
ltibia 35.2929 0 0
lfoot -37.3345 3.30602 0
ltoes 38.3409 0 0
rfemur -24.0049 -1.13517 21.358
rtibia 38.5254 0 0
rfoot -27.5244 -8.2325 0
rtoes 18.6246 0 0
lowerback -1.75955 3.24097 -5.16919
upperback -2.12184 4.35799 2.76142
thorax -1.8128 2.30913 5.86917
lowerneck -9.98584 -2.18748 1.85637
upperneck -1.31367 -3.08857 -1.1111
head 1.22081 -1.56585 -0.778689
lclavicle -1.02383e-13 -3.97748e-14 0
lhumerus -41.9291 -11.269 98.6283
lradius 35.8174 0 0
lwrist 3.44202 0 0
lhand -10.3231 3.43018 0
lfingers 7.12502 0 0
lthumb 15.6647 32.7294 0
rclavicle -1.02383e-13 -3.97748e-14 0
rhumerus -43.9884 -5.83431 -83.4022
rradius 43.8018 0 0
rwrist 6.87339 0 0
rhand -24.3055 -22.6539 0
rfingers 7.12502 0 0
rthumb 2.18236 -52.6191 0
13
root 6.33608 16.8285 -27.9664 7.94419 -2.18679 -2.07252
lfemur -19.0406 3.07813 -20.599
ltibia 35.3009 0 0
lfoot -37.1797 3.17256 0
ltoes 38.2861 0 0
rfemur -24.6294 -1.32769 21.6553
rtibia 38.9744 0 0
rfoot -27.1463 -7.9528 0
rtoes 18.1866 0 0
lowerback -1.6077 3.18573 -5.20011
upperback -2.05967 4.27205 2.72256
thorax -1.8205 2.26509 5.85455
lowerneck -10.0057 -2.17548 1.83635
upperneck -1.30078 -3.07166 -1.07365
head 1.2293 -1.55626 -0.762781
lclavicle -1.01543e-13 -3.93297e-14 0
lhumerus -41.9201 -11.3665 98.5604
lradius 35.954 0 0
lwrist 3.5592 0 0
lhand -10.1593 3.4592 0
lfingers 7.12502 0 0
lthumb 15.8216 32.7358 0
rclavicle -1.01543e-13 -3.93297e-14 0
rhumerus -43.9984 -6.00888 -83.2008
rradius 44.1139 0 0
rwrist 6.5006 0 0
rhand -24.345 -22.6877 0
rfingers 7.12502 0 0
rthumb 2.14416 -52.6528 0
14
root 6.3475 16.8258 -27.9529 7.79641 -2.08316 -2.01348
lfemur -18.9367 3.16481 -20.6043
ltibia 35.3089 0 0
lfoot -37.0249 3.03911 0
ltoes 38.2313 0 0
rfemur -25.2538 -1.52021 21.9526
rtibia 39.4233 0 0
rfoot -26.7683 -7.6731 0
rtoes 17.7485 0 0
lowerback -1.45584 3.13048 -5.23104
upperback -1.99751 4.18612 2.68369
thorax -1.82819 2.22105 5.83994
lowerneck -10.0256 -2.16349 1.81633
upperneck -1.2879 -3.05474 -1.03621
head 1.23778 -1.54667 -0.746873
lclavicle -1.00702e-13 -3.88847e-14 0
lhumerus -41.9111 -11.4641 98.4925
lradius 36.0906 0 0
lwrist 3.67639 0 0
lhand -9.99552 3.48821 0
lfingers 7.12502 0 0
lthumb 15.9784 32.7423 0
rclavicle -1.00702e-13 -3.88847e-14 0
rhumerus -44.0085 -6.18345 -82.9994
rradius 44.4261 0 0
rwrist 6.12781 0 0
rhand -24.3846 -22.7214 0
rfingers 7.12502 0 0
rthumb 2.10596 -52.6865 0
